<?xml version="1.0" encoding="utf-8"?>
<!-- Generator: Adobe Illustrator 16.0.0, SVG Export Plug-In . SVG Version: 6.00 Build 0)  -->
<!DOCTYPE svg PUBLIC "-//W3C//DTD SVG 1.1//EN" "http://www.w3.org/Graphics/SVG/1.1/DTD/svg11.dtd">
<svg version="1.1" id="Capa_1" xmlns="http://www.w3.org/2000/svg"  x="0px" y="0px"
	 width="582.896px" height="223.896px" viewBox="0 0 582.896 223.896" enable-background="new 0 0 582.896 223.896"
	 xml:space="preserve">
<path fill="#FFFFFF" d="M36.057,18.153c2.125-0.163,4.175,0.208,6.14,1.105c1.965,0.901,3.723,2.087,5.281,3.56
	c1.554,1.474,2.74,3.234,3.562,5.28c0.817,2.051,1.228,4.138,1.228,6.264v28.247c5.729-2.947,11.667-4.871,17.808-5.771
	c6.14-0.898,12.238-0.898,18.298,0c6.056,0.901,11.951,2.7,17.684,5.404c5.729,2.701,11.052,6.346,15.965,10.929
	c5.729,5.894,10.028,12.243,12.895,19.034c2.863,6.797,4.298,14.534,4.298,23.21c0,8.19-1.596,15.886-4.79,23.089
	c-3.192,7.206-7.491,13.509-12.895,18.912c-5.403,5.404-11.709,9.664-18.912,12.771c-7.208,3.112-14.821,4.669-22.842,4.669
	c-7.86,0-15.393-1.598-22.597-4.79c-7.207-3.193-13.55-7.491-19.035-12.896c-5.488-5.403-9.867-11.706-13.141-18.912
	c-3.277-7.203-4.913-14.818-4.913-22.843v-82.28c0-1.965,0.491-3.886,1.473-5.771c0.983-1.879,2.211-3.519,3.686-4.912
	c1.473-1.391,3.15-2.496,5.035-3.317C32.165,18.316,34.091,17.99,36.057,18.153z M52.267,115.414c0,3.771,0.737,7.331,2.211,10.687
	c1.473,3.355,3.477,6.261,6.018,8.718c2.537,2.457,5.442,4.42,8.719,5.896c3.273,1.473,6.792,2.208,10.561,2.208
	c3.6,0,7.081-0.735,10.439-2.208c3.354-1.477,6.301-3.439,8.842-5.896c2.537-2.457,4.544-5.362,6.018-8.718s2.21-6.916,2.21-10.687
	c0-3.765-0.737-7.325-2.21-10.683c-1.474-3.353-3.481-6.264-6.018-8.718c-2.541-2.457-5.488-4.422-8.842-5.896
	c-3.358-1.474-6.839-2.211-10.439-2.211c-3.769,0-7.288,0.779-10.561,2.333c-3.277,1.559-6.183,3.604-8.719,6.142
	c-2.541,2.541-4.544,5.487-6.018,8.843C53.003,108.582,52.267,111.976,52.267,115.414z"/>
<path fill="#FFFFFF" d="M165,16.304c4.256,0,7.898,1.598,10.93,4.79c3.028,3.192,4.544,6.919,4.544,11.175
	c0,4.26-1.516,7.983-4.544,11.175c-3.032,3.193-6.673,4.791-10.93,4.791c-4.751-0.163-8.639-1.678-11.667-4.544
	c-3.032-2.863-4.544-6.916-4.544-12.159c0.162-4.254,1.842-7.858,5.036-10.805C157.018,17.777,160.74,16.304,165,16.304z"/>
<path fill="#FFFFFF" d="M165,56.712c4.256,0,7.817,1.559,10.684,4.668c2.863,3.113,4.459,6.877,4.79,11.297v86.949
	c0,4.42-1.393,8.104-4.175,11.051c-2.786,2.946-6.551,4.583-11.298,4.912c-4.26,0-7.86-1.308-10.807-3.928
	c-2.947-2.618-4.75-6.303-5.404-11.055V71.697c0.327-4.257,2.046-7.775,5.157-10.562C157.057,58.352,160.74,56.878,165,56.712z"/>
<path fill="#FFFFFF" d="M209.454,175.101c-4.421,0-8.105-1.433-11.053-4.299c-2.947-2.863-4.585-6.67-4.912-11.421v-45.439
	c0.161-7.859,1.842-15.267,5.035-22.227c3.193-6.96,7.449-13.02,12.772-18.177c5.319-5.158,11.544-9.249,18.666-12.281
	c7.124-3.027,14.695-4.705,22.719-5.034c4.583,0,8.39,1.556,11.421,4.666c3.028,3.112,4.705,6.877,5.035,11.297
	c0,4.422-1.559,8.149-4.667,11.175c-3.112,3.032-6.961,4.63-11.543,4.791c-3.769,0-7.288,0.699-10.562,2.087
	c-3.277,1.393-6.14,3.317-8.596,5.774c-2.456,2.455-4.42,5.365-5.895,8.718c-1.474,3.358-2.21,6.999-2.21,10.929v44.702
	c-0.33,4.259-1.927,7.778-4.79,10.562C218.008,173.71,214.202,175.101,209.454,175.101z"/>
<path fill="#FFFFFF" d="M329.804,54.928c8.021,0,15.634,1.556,22.843,4.666c7.203,3.112,13.508,7.369,18.912,12.77
	c5.402,5.404,9.702,11.709,12.893,18.915c3.194,7.206,4.791,14.901,4.791,23.086c0,8.19-1.517,15.886-4.543,23.089
	c-3.032,7.206-7.209,13.509-12.527,18.912c-5.323,5.404-11.629,9.663-18.912,12.771c-7.289,3.112-15.106,4.669-23.456,4.669
	c-10.156,0-19.323-2.046-27.509-6.143v28.247c0,4.257-1.56,7.938-4.667,11.051c-3.112,3.109-6.961,4.669-11.543,4.669
	c-4.095,0-7.738-1.438-10.93-4.299c-3.193-2.866-4.874-6.429-5.035-10.686v-82.28c0-8.021,1.597-15.634,4.789-22.843
	c3.193-7.203,7.492-13.508,12.896-18.912c5.403-5.404,11.705-9.702,18.912-12.895C313.919,56.523,321.614,54.928,329.804,54.928z
	 M302.295,114.365c0,4.097,0.736,7.822,2.211,11.176c1.474,3.358,3.476,6.264,6.018,8.721c2.536,2.454,5.484,4.381,8.841,5.771
	c3.354,1.393,6.835,2.087,10.439,2.087c3.93,0,7.529-0.738,10.808-2.212c3.272-1.473,6.139-3.477,8.596-6.017
	c2.455-2.535,4.379-5.484,5.771-8.843c1.39-3.354,2.087-6.913,2.087-10.684c0-3.765-0.736-7.325-2.21-10.683
	c-1.475-3.356-3.438-6.264-5.894-8.721c-2.458-2.454-5.324-4.378-8.597-5.771c-3.278-1.388-6.797-2.087-10.562-2.087
	c-3.931,0-7.577,0.738-10.93,2.211c-3.358,1.473-6.264,3.438-8.72,5.893c-2.456,2.458-4.383,5.324-5.772,8.597
	C302.989,107.082,302.295,110.601,302.295,114.365z"/>
<path fill="#FFFFFF" d="M415.029,16.304c4.256,0,7.898,1.598,10.93,4.79c3.028,3.192,4.544,6.919,4.544,11.175
	c0,4.26-1.516,7.983-4.544,11.175c-3.031,3.193-6.674,4.791-10.93,4.791c-4.751-0.163-8.64-1.678-11.666-4.544
	c-3.032-2.863-4.544-6.916-4.544-12.159c0.16-4.254,1.841-7.858,5.034-10.805C407.046,17.777,410.768,16.304,415.029,16.304z"/>
<path fill="#FFFFFF" d="M415.029,56.712c4.256,0,7.817,1.559,10.685,4.668c2.862,3.113,4.459,6.877,4.789,11.297v86.949
	c0,4.42-1.393,8.104-4.175,11.051c-2.786,2.946-6.552,4.583-11.299,4.912c-4.261,0-7.859-1.308-10.807-3.928
	c-2.947-2.618-4.751-6.303-5.403-11.055V71.697c0.326-4.257,2.045-7.775,5.157-10.562C407.084,58.352,410.768,56.878,415.029,56.712
	z"/>
<path fill="#FFFFFF" d="M503.939,55.239c7.858,0,15.388,1.435,22.597,4.298c7.203,2.867,13.508,6.877,18.912,12.035
	c5.403,5.158,9.739,11.261,13.016,18.299c3.274,7.043,4.914,14.655,4.914,22.843v45.437c0,4.263-1.517,7.944-4.545,11.054
	c-3.03,3.112-6.754,4.752-11.175,4.912c-4.422,0-8.228-1.432-11.422-4.298c-3.192-2.864-4.788-6.51-4.788-10.93v-44.21
	c0-3.765-0.7-7.327-2.088-10.686c-1.393-3.353-3.358-6.261-5.896-8.718c-2.54-2.458-5.486-4.42-8.843-5.896
	c-3.358-1.473-6.998-2.208-10.929-2.208c-3.604,0-7.043,0.697-10.316,2.087c-3.278,1.393-6.14,3.234-8.596,5.525
	c-2.456,2.294-4.422,5.078-5.895,8.351c-1.475,3.278-2.21,6.717-2.21,10.316v44.701c0,4.263-1.64,7.983-4.914,11.176
	c-3.276,3.195-7.041,4.79-11.298,4.79c-4.26,0-8.024-1.474-11.297-4.42c-3.278-2.949-4.913-6.548-4.913-10.808v-44.21
	c0.161-8.187,1.758-15.882,4.788-23.088c3.03-7.204,7.204-13.508,12.527-18.912c5.318-5.404,11.582-9.661,18.789-12.773
	C487.563,56.798,495.422,55.239,503.939,55.239z"/>
</svg>
