<?xml version="1.0" encoding="utf-8"?>
<!-- Generator: Adobe Illustrator 16.0.0, SVG Export Plug-In . SVG Version: 6.00 Build 0)  -->
<!DOCTYPE svg PUBLIC "-//W3C//DTD SVG 1.1//EN" "http://www.w3.org/Graphics/SVG/1.1/DTD/svg11.dtd">
<svg version="1.1" id="Capa_1" xmlns="http://www.w3.org/2000/svg"  x="0px" y="0px"
	 width="178.28px" height="265.831px" viewBox="0 0 178.28 265.831" enable-background="new 0 0 178.28 265.831"
	 xml:space="preserve">
<g>
	<g>
		<polygon fill="#4F2B08" points="155.4,123.692 151.396,130.796 148.064,129.093 151.255,121.586 		"/>
		<path fill="#F2E9E2" d="M159.239,126.187l-4.83,6.571c-1.021-0.677-1.92-1.516-3.094-2l3.985-7.116
			C156.72,124.264,157.943,125.306,159.239,126.187z"/>
		<path fill="#4F2B08" d="M162.863,129.233l-5.673,5.859c-0.807-0.896-1.731-1.678-2.781-2.334l4.83-6.571
			C160.562,127.045,161.769,128.061,162.863,129.233z"/>
		<path fill="#F2E9E2" d="M165.987,132.691l-6.44,5c-0.627-1.025-1.566-1.809-2.417-2.658l5.652-5.879
			C163.914,130.275,165.104,131.336,165.987,132.691z"/>
		<path fill="#4F2B08" d="M168.647,136.677l-7.114,3.987c-0.448-1.122-1.329-1.979-1.986-2.974l6.44-5
			C166.896,134.006,168,135.201,168.647,136.677z"/>
		<path fill="#F2E9E2" d="M170.644,140.913l-7.616,2.914c-0.318-1.169-1.048-2.146-1.531-3.236l7.099-4.011
			C169.278,138.023,170.188,139.382,170.644,140.913z"/>
		<path fill="#4F2B08" d="M172.031,145.477l-7.952,1.799c-0.198-1.201-0.727-2.293-1.052-3.449l7.616-2.914
			C171.108,142.432,171.756,143.917,172.031,145.477z"/>
		<path fill="#F2E9E2" d="M172.764,150.047l-8.121,0.739c-0.104-1.215-0.404-2.395-0.58-3.595l7.948-1.826
			C172.267,146.922,172.629,148.481,172.764,150.047z"/>
		<path fill="#4F2B08" d="M172.906,154.747l-8.149-0.276c0.002-1.231-0.09-2.454-0.114-3.684l8.121-0.739
			C172.817,151.613,172.92,153.186,172.906,154.747z"/>
		<polygon fill="#F2E9E2" points="172.495,159.287 164.43,158.09 164.765,154.381 172.915,154.637 		"/>
		<polygon fill="#4F2B08" points="171.551,163.823 163.659,161.764 164.43,158.09 172.495,159.287 		"/>
		<path fill="#F2E9E2" d="M170.179,168.107l-7.646-2.831c0.367-1.203,0.862-2.378,1.145-3.598l7.896,2.036
			C171.219,165.216,170.644,166.642,170.179,168.107z"/>
		<path fill="#4F2B08" d="M168.361,172.325l-7.332-3.568c0.484-1.168,1.166-2.263,1.504-3.48l7.646,2.831
			C169.743,169.589,168.962,170.917,168.361,172.325z"/>
		<path fill="#F2E9E2" d="M166.21,176.244l-6.967-4.239c0.652-1.088,1.35-2.151,1.823-3.331l7.341,3.553
			C167.817,173.645,166.996,174.934,166.21,176.244z"/>
		<path fill="#4F2B08" d="M163.648,180.036l-6.535-4.877c0.81-0.985,1.519-2.034,2.13-3.154l6.967,4.239
			C165.465,177.582,164.612,178.844,163.648,180.036z"/>
		<path fill="#F2E9E2" d="M160.821,183.494l-6.058-5.459c0.925-0.876,1.625-1.947,2.404-2.949l6.546,4.863
			C162.781,181.157,161.921,182.425,160.821,183.494z"/>
		<path fill="#4F2B08" d="M157.608,186.76l-5.508-6.014c0.981-0.802,1.765-1.818,2.663-2.712l6.058,5.459
			C159.749,184.58,158.784,185.781,157.608,186.76z"/>
		<polygon fill="#F2E9E2" points="154.186,189.657 149.273,183.149 152.17,180.689 157.69,186.69 		"/>
	</g>
	<g>
		<rect x="106.248" y="187.666" fill="#257A7C" width="19.899" height="65.222"/>
		<path fill="#FA422A" d="M116.198,243.267c-8.089,0-14.652,6.501-14.771,14.563h29.542
			C130.85,249.768,124.288,243.267,116.198,243.267z"/>
		<path fill="#46B2AC" d="M130.153,215.876c0,3.984-3.23,7.215-7.215,7.215h-13.482c-3.985,0-7.215-3.23-7.215-7.215l0,0
			c0-3.983,3.229-7.216,7.215-7.216h13.482C126.923,208.661,130.153,211.893,130.153,215.876L130.153,215.876z"/>
	</g>
	<g>
		<rect x="52.787" y="187.666" fill="#257A7C" width="19.898" height="65.222"/>
		<path fill="#FA422A" d="M62.735,243.267c-8.088,0-14.651,6.501-14.77,14.563h29.54C77.388,249.768,70.826,243.267,62.735,243.267z
			"/>
		<path fill="#46B2AC" d="M76.692,215.876c0,3.984-3.23,7.215-7.214,7.215H55.994c-3.984,0-7.214-3.23-7.214-7.215l0,0
			c0-3.983,3.23-7.216,7.214-7.216h13.483C73.462,208.661,76.692,211.893,76.692,215.876L76.692,215.876z"/>
	</g>
	<g>
		<rect x="36.208" y="114.525" fill="#46B2AC" width="106.119" height="69.869"/>
	</g>
	<path fill="#4F2B08" d="M127.473,157.579c0,3.998-3.242,7.243-7.245,7.243H60.544c-4.002,0-7.246-3.245-7.246-7.243v-27.255
		c0-4.001,3.244-7.246,7.246-7.246h59.684c4.003,0,7.245,3.245,7.245,7.246V157.579z"/>
	<rect x="84.804" y="27.888" fill="#4F2B08" width="4.639" height="24.307"/>
	<g>
		<polygon fill="#46B2AC" points="132.957,109.559 129.851,109.559 47.203,109.559 44.097,109.559 44.097,106.452 44.097,46.417
			44.097,43.312 47.203,43.312 129.851,43.312 132.957,43.312 132.957,46.417 132.957,106.452 132.957,109.559 		"/>
	</g>
	<g>
		<g>
			<path fill="#4F2B08" d="M105.771,100.238c-12.54,4.078-20.546,4.078-33.089,0c0-3.344,0-5.014,0-8.36
				c12.543,4.078,20.548,4.078,33.089,0C105.771,95.224,105.771,96.894,105.771,100.238z"/>
			<path fill="#F2E9E2" d="M77.029,97.044c-1.15-0.37-1.719-0.579-2.844-1.04c0-1.086,0-1.629,0-2.715
				c1.125,0.462,1.693,0.669,2.844,1.041C77.029,95.416,77.029,95.959,77.029,97.044z"/>
			<path fill="#F2E9E2" d="M77.029,100.469c-1.15-0.373-1.719-0.584-2.844-1.044c0-1.086,0-1.629,0-2.714
				c1.125,0.461,1.693,0.671,2.844,1.043C77.029,98.839,77.029,99.383,77.029,100.469z"/>
			<path fill="#F2E9E2" d="M80.861,98.073c-1.178-0.253-1.762-0.401-2.92-0.745c0-1.086,0-1.627,0-2.714
				c1.159,0.343,1.742,0.492,2.92,0.744C80.861,96.444,80.861,96.987,80.861,98.073z"/>
			<path fill="#F2E9E2" d="M80.861,101.495c-1.178-0.253-1.762-0.401-2.92-0.745c0-1.086,0-1.628,0-2.715
				c1.159,0.345,1.742,0.491,2.92,0.746C80.861,99.866,80.861,100.409,80.861,101.495z"/>
			<path fill="#F2E9E2" d="M84.767,98.711c-1.194-0.134-1.79-0.226-2.971-0.449c0-1.085,0-1.629,0-2.715
				c1.182,0.225,1.777,0.316,2.971,0.449C84.767,97.083,84.767,97.625,84.767,98.711z"/>
			<path fill="#F2E9E2" d="M84.767,102.132c-1.194-0.135-1.79-0.226-2.971-0.449c0-1.086,0-1.63,0-2.715
				c1.182,0.223,1.777,0.314,2.971,0.449C84.767,100.504,84.767,101.047,84.767,102.132z"/>
			<path fill="#F2E9E2" d="M88.71,98.957c-1.203-0.016-1.802-0.046-2.999-0.152c0-1.085,0-1.628,0-2.713
				c1.197,0.105,1.796,0.134,2.999,0.151C88.71,97.328,88.71,97.871,88.71,98.957z"/>
			<path fill="#F2E9E2" d="M88.71,102.378c-1.203-0.017-1.802-0.046-2.999-0.153c0-1.085,0-1.629,0-2.715
				c1.197,0.105,1.796,0.137,2.999,0.153C88.71,100.75,88.71,101.293,88.71,102.378z"/>
			<path fill="#F2E9E2" d="M92.655,98.813c-1.196,0.104-1.798,0.131-2.997,0.144c0-1.086,0-1.629,0-2.715
				c1.199-0.012,1.801-0.041,2.997-0.144C92.655,97.184,92.655,97.727,92.655,98.813z"/>
			<path fill="#F2E9E2" d="M92.655,102.235c-1.196,0.103-1.798,0.131-2.997,0.143c0-1.085,0-1.628,0-2.714
				c1.199-0.011,1.801-0.041,2.997-0.144C92.655,100.606,92.655,101.149,92.655,102.235z"/>
			<path fill="#F2E9E2" d="M96.571,98.277c-1.182,0.222-1.777,0.311-2.971,0.443c0-1.086,0-1.63,0-2.715
				c1.193-0.131,1.789-0.22,2.971-0.443C96.571,96.648,96.571,97.193,96.571,98.277z"/>
			<path fill="#F2E9E2" d="M96.571,101.698c-1.182,0.223-1.777,0.312-2.971,0.442c0-1.083,0-1.628,0-2.714
				c1.193-0.13,1.789-0.221,2.971-0.442C96.571,100.07,96.571,100.613,96.571,101.698z"/>
			<path fill="#F2E9E2" d="M100.426,97.353c-1.159,0.34-1.744,0.487-2.922,0.738c0-1.086,0-1.629,0-2.716
				c1.178-0.25,1.763-0.396,2.922-0.738C100.426,95.723,100.426,96.269,100.426,97.353z"/>
			<path fill="#F2E9E2" d="M100.426,100.776c-1.159,0.34-1.744,0.487-2.922,0.738c0-1.086,0-1.63,0-2.714
				c1.178-0.252,1.763-0.399,2.922-0.74C100.426,99.147,100.426,99.69,100.426,100.776z"/>
			<path fill="#F2E9E2" d="M104.186,96.038c-1.125,0.459-1.695,0.666-2.846,1.035c0-1.086,0-1.628,0-2.714
				c1.15-0.37,1.721-0.577,2.846-1.038C104.186,94.409,104.186,94.951,104.186,96.038z"/>
			<path fill="#F2E9E2" d="M104.186,99.46c-1.125,0.459-1.695,0.665-2.846,1.035c0-1.085,0-1.627,0-2.715
				c1.15-0.371,1.721-0.577,2.846-1.036C104.186,97.83,104.186,98.375,104.186,99.46z"/>
		</g>
	</g>
	<path fill="#257A7C" d="M153.267,135.258c0,2.544-2.062,4.605-4.607,4.605l0,0c-2.543,0-4.604-2.062-4.604-4.605v-18.792
		c0-2.546,2.062-4.606,4.604-4.606l0,0c2.545,0,4.607,2.06,4.607,4.606V135.258z"/>
	<rect x="48.291" y="47.74" fill="none" stroke="#FFFFFF" stroke-width="8.0986" width="80.472" height="58.219"/>
	<g>
		<circle fill="#AD5F2A" cx="72.025" cy="144.166" r="14.991"/>
		<circle fill="#FFFFFF" cx="72.025" cy="144.166" r="11.052"/>
		<g>
			<g>
				<g>
					<path fill="#FA422A" d="M67.563,144.166c-1.262-0.014-2.453,0.376-3.088,1.482c-0.645,1.062-0.595,2.822,0.46,4.126
						c1.033,1.32,2.68,1.769,3.871,1.385c1.227-0.363,1.923-1.426,2.191-2.646l5.838-24.56c0.263-1.208,2.177-2.063,5.205-1.609
						c2.975,0.43,6.978,2.403,9.877,6.109c1.456,1.822,2.449,3.858,3.046,5.782c0.581,1.937,0.739,3.765,0.621,5.271
						c-0.141,1.515-0.516,2.7-1.037,3.481c-0.509,0.787-1.109,1.178-1.738,1.177H67.563z"/>
				</g>
			</g>
		</g>
		<g>
			<path fill="#AD5F2A" d="M72.246,146.45c-0.296,0.601-0.925,0.898-1.396,0.665l0,0c-0.476-0.238-0.616-0.915-0.318-1.518
				l2.988-6.021c0.299-0.601,0.926-0.898,1.4-0.663l0,0c0.473,0.235,0.614,0.915,0.314,1.515L72.246,146.45z"/>
			<circle fill="#AD5F2A" cx="72.251" cy="144.149" r="1.959"/>
		</g>
	</g>
	<g>
		<path fill="#F0812B" d="M110.268,139.99l0.59,0.146c0.191,0.051,0.386-0.096,0.431-0.323c0.045-0.242,0.1-0.483,0.132-0.729
			c0.022-0.232-0.12-0.434-0.318-0.448c0,0-0.268-0.026-0.597-0.058c-0.33-0.034-0.567-0.358-0.559-0.729
			c0.006-0.372,0.258-0.688,0.592-0.708l0.604-0.034c0.203-0.009,0.341-0.204,0.317-0.437c-0.03-0.244-0.045-0.492-0.089-0.734
			c-0.047-0.229-0.242-0.38-0.436-0.34c0,0-0.265,0.057-0.591,0.126c-0.322,0.064-0.646-0.174-0.748-0.531
			c-0.104-0.357,0.043-0.732,0.354-0.848l0.569-0.212c0.187-0.069,0.265-0.297,0.174-0.511c-0.101-0.229-0.18-0.461-0.306-0.675
			c-0.109-0.207-0.34-0.293-0.512-0.197c0,0-0.236,0.13-0.528,0.293c-0.289,0.161-0.67,0.024-0.871-0.286
			c-0.206-0.31-0.178-0.713,0.09-0.915l0.479-0.367c0.158-0.12,0.169-0.365,0.021-0.545c-0.155-0.192-0.312-0.38-0.492-0.55
			c-0.163-0.166-0.408-0.185-0.544-0.041c0,0-0.188,0.195-0.419,0.432c-0.23,0.24-0.635,0.226-0.92-0.012
			c-0.286-0.238-0.377-0.632-0.183-0.903l0.349-0.49c0.114-0.161,0.053-0.398-0.143-0.528c-0.198-0.144-0.413-0.269-0.633-0.382
			c-0.205-0.11-0.444-0.055-0.531,0.123c0,0-0.121,0.24-0.271,0.538s-0.539,0.401-0.883,0.259c-0.344-0.141-0.547-0.489-0.441-0.807
			l0.187-0.571c0.064-0.19-0.065-0.396-0.289-0.461c-0.233-0.08-0.473-0.14-0.717-0.178c-0.229-0.049-0.438,0.077-0.471,0.271
			c0,0-0.046,0.267-0.101,0.596c-0.058,0.326-0.399,0.54-0.769,0.504c-0.37-0.036-0.665-0.308-0.659-0.642l0.012-0.603
			c0.005-0.199-0.181-0.357-0.411-0.357c-0.248,0-0.495,0.007-0.74,0.041c-0.233,0.024-0.399,0.207-0.373,0.401
			c0,0,0.037,0.269,0.079,0.598c0.045,0.332-0.22,0.634-0.583,0.711c-0.362,0.077-0.728-0.099-0.818-0.416l-0.169-0.582
			c-0.051-0.192-0.277-0.288-0.499-0.218c-0.238,0.065-0.466,0.161-0.693,0.257c-0.216,0.091-0.32,0.31-0.237,0.49
			c0,0,0.114,0.245,0.253,0.55c0.14,0.302-0.023,0.672-0.35,0.853c-0.322,0.178-0.721,0.12-0.903-0.158l-0.331-0.504
			c-0.106-0.166-0.351-0.194-0.542-0.067c-0.211,0.132-0.393,0.302-0.586,0.454c-0.181,0.147-0.217,0.387-0.084,0.536
			c0,0,0.179,0.202,0.403,0.451c0.223,0.25,0.176,0.651-0.083,0.917s-0.655,0.329-0.91,0.117l-0.463-0.384
			c-0.153-0.127-0.396-0.086-0.544,0.093c-0.153,0.195-0.284,0.406-0.424,0.608c-0.129,0.194-0.099,0.432,0.075,0.536
			c0,0,0.232,0.142,0.521,0.314c0.286,0.173,0.36,0.569,0.193,0.9c-0.167,0.332-0.528,0.506-0.836,0.381l-0.553-0.23
			c-0.184-0.077-0.406,0.036-0.495,0.252c-0.083,0.23-0.147,0.468-0.22,0.703c-0.068,0.224,0.035,0.442,0.228,0.491
			c0,0,0.262,0.063,0.588,0.143c0.324,0.082,0.514,0.439,0.45,0.805c-0.062,0.366-0.355,0.642-0.686,0.61l-0.598-0.058
			c-0.196-0.02-0.377,0.153-0.396,0.384c-0.025,0.246-0.006,0.493-0.01,0.742c0.004,0.23,0.167,0.411,0.364,0.398
			c0,0,0.271-0.014,0.605-0.033c0.334-0.019,0.619,0.267,0.668,0.637c0.048,0.367-0.152,0.716-0.476,0.785l-0.59,0.122
			c-0.194,0.039-0.312,0.257-0.264,0.485c0.058,0.238,0.141,0.474,0.212,0.709c0.068,0.223,0.277,0.346,0.467,0.276
			c0,0,0.255-0.097,0.567-0.214c0.314-0.116,0.67,0.072,0.827,0.411c0.156,0.336,0.067,0.729-0.224,0.89l-0.527,0.291
			c-0.173,0.097-0.227,0.339-0.111,0.54l0.41,0.615c0.125,0.199,0.375,0.243,0.532,0.123c0,0,0.214-0.166,0.479-0.367
			c0.266-0.205,0.662-0.128,0.908,0.148c0.249,0.278,0.279,0.679,0.05,0.92l-0.421,0.434c-0.136,0.138-0.126,0.396,0.056,0.546
			l0.57,0.473c0.177,0.151,0.435,0.113,0.546-0.046c0,0,0.156-0.22,0.351-0.491c0.193-0.27,0.592-0.315,0.911-0.122
			c0.319,0.191,0.468,0.565,0.318,0.864l-0.271,0.538c-0.091,0.172-0.003,0.419,0.214,0.501l0.686,0.286
			c0.215,0.089,0.45-0.023,0.509-0.206c0,0,0.084-0.258,0.186-0.575c0.106-0.316,0.333-0.524,0.511-0.47
			c0.106,0.028,0.217,0.06,0.325,0.086c0.109,0.027,0.218,0.051,0.327,0.075c0.181,0.035,0.286,0.326,0.229,0.655l-0.102,0.594
			c-0.033,0.188,0.12,0.4,0.352,0.419l0.739,0.07c0.231,0.029,0.423-0.149,0.426-0.344c0,0,0.005-0.271,0.012-0.603
			c0.006-0.334,0.312-0.596,0.685-0.615c0.37-0.021,0.704,0.204,0.747,0.534l0.08,0.598c0.024,0.191,0.233,0.349,0.462,0.298
			l0.725-0.154c0.229-0.043,0.359-0.269,0.306-0.456c0,0-0.076-0.257-0.169-0.579c-0.092-0.319,0.123-0.66,0.472-0.789
			c0.349-0.131,0.733-0.013,0.873,0.29l0.254,0.553c0.08,0.177,0.321,0.254,0.525,0.139l0.649-0.351
			c0.196-0.125,0.263-0.365,0.154-0.531c0,0-0.147-0.226-0.329-0.504c-0.181-0.278-0.075-0.665,0.22-0.894
			c0.295-0.223,0.698-0.223,0.92,0.023l0.404,0.455c0.133,0.151,0.375,0.139,0.54-0.024c0.174-0.173,0.357-0.343,0.52-0.528
			c0.148-0.178,0.146-0.425-0.007-0.55c0,0-0.208-0.173-0.462-0.385c-0.256-0.211-0.271-0.615-0.054-0.917
			c0.214-0.303,0.601-0.423,0.887-0.249l0.519,0.312c0.169,0.103,0.398,0.021,0.51-0.183c0.111-0.221,0.245-0.43,0.337-0.661
			c0.092-0.213,0.016-0.448-0.168-0.522c0,0-0.249-0.104-0.557-0.23c-0.307-0.126-0.437-0.507-0.321-0.858
			C109.609,140.138,109.944,139.91,110.268,139.99z M107.713,138.95l-4.63-1.15c0.066-0.896-0.441-1.738-1.265-2.1l1.147-4.63
			C106.33,132.091,108.382,135.5,107.713,138.95z M102.266,130.895l-1.147,4.63c-0.896-0.064-1.74,0.444-2.102,1.266l-4.63-1.15
			C95.407,132.28,98.815,130.227,102.266,130.895z M94.211,136.344l4.631,1.15c-0.066,0.893,0.444,1.738,1.266,2.099l-1.148,4.63
			C95.596,143.2,93.544,139.792,94.211,136.344z M99.658,144.396l1.151-4.63c0.894,0.067,1.739-0.441,2.099-1.263l4.63,1.149
			C106.518,143.013,103.109,145.066,99.658,144.396z"/>
	</g>
	<g>
		<g>
			<path fill="#FFFFFF" d="M121.716,153.404l0.454,0.113c0.146,0.038,0.298-0.073,0.331-0.249c0.033-0.188,0.077-0.372,0.102-0.56
				c0.02-0.181-0.092-0.337-0.244-0.351c0,0-0.207-0.02-0.461-0.044c-0.256-0.024-0.438-0.273-0.432-0.562
				c0.006-0.286,0.199-0.531,0.457-0.546l0.467-0.023c0.155-0.009,0.264-0.161,0.245-0.339c-0.023-0.188-0.034-0.382-0.07-0.567
				c-0.036-0.177-0.187-0.294-0.336-0.261c0,0-0.202,0.043-0.454,0.096c-0.25,0.051-0.499-0.135-0.578-0.411
				c-0.08-0.273,0.033-0.564,0.274-0.652l0.438-0.163c0.146-0.054,0.206-0.23,0.134-0.396c-0.077-0.173-0.138-0.355-0.233-0.519
				c-0.084-0.159-0.262-0.226-0.396-0.151c0,0-0.183,0.101-0.406,0.223c-0.224,0.125-0.517,0.022-0.675-0.219
				c-0.156-0.237-0.135-0.55,0.07-0.705l0.371-0.284c0.122-0.094,0.129-0.28,0.016-0.42c-0.12-0.148-0.241-0.296-0.381-0.425
				c-0.125-0.13-0.314-0.145-0.418-0.033c0,0-0.146,0.151-0.324,0.336s-0.492,0.172-0.71-0.011c-0.222-0.183-0.29-0.487-0.141-0.698
				l0.269-0.377c0.088-0.123,0.04-0.308-0.109-0.405c-0.153-0.113-0.32-0.207-0.489-0.296c-0.159-0.084-0.343-0.043-0.41,0.094
				c0,0-0.094,0.188-0.21,0.416c-0.114,0.229-0.415,0.309-0.681,0.199c-0.265-0.108-0.421-0.378-0.34-0.62l0.145-0.444
				c0.048-0.144-0.052-0.303-0.226-0.355c-0.178-0.06-0.364-0.105-0.552-0.137c-0.177-0.036-0.339,0.061-0.363,0.212
				c0,0-0.035,0.203-0.077,0.456c-0.045,0.254-0.309,0.417-0.594,0.391c-0.285-0.025-0.512-0.237-0.51-0.494l0.011-0.466
				c0.004-0.154-0.14-0.276-0.318-0.274c-0.191-0.002-0.382,0.005-0.571,0.031c-0.18,0.017-0.308,0.159-0.286,0.308
				c0,0,0.028,0.206,0.06,0.462c0.035,0.254-0.168,0.488-0.45,0.55c-0.278,0.06-0.56-0.075-0.63-0.322l-0.131-0.449
				c-0.04-0.146-0.214-0.221-0.387-0.168c-0.184,0.051-0.357,0.125-0.534,0.199c-0.167,0.069-0.247,0.24-0.183,0.377
				c0,0,0.088,0.189,0.193,0.425c0.108,0.233-0.016,0.517-0.267,0.658c-0.25,0.137-0.557,0.094-0.697-0.123l-0.255-0.389
				c-0.082-0.127-0.271-0.15-0.421-0.05c-0.161,0.101-0.302,0.232-0.45,0.348c-0.14,0.116-0.17,0.301-0.066,0.413
				c0,0,0.139,0.156,0.312,0.348c0.171,0.193,0.136,0.503-0.065,0.709c-0.197,0.207-0.506,0.255-0.702,0.092l-0.357-0.298
				c-0.116-0.099-0.306-0.067-0.419,0.074c-0.118,0.149-0.22,0.312-0.326,0.469c-0.1,0.151-0.077,0.333,0.059,0.413
				c0,0,0.179,0.108,0.4,0.242c0.222,0.132,0.277,0.437,0.148,0.693c-0.128,0.258-0.407,0.393-0.644,0.296l-0.428-0.177
				c-0.142-0.061-0.313,0.028-0.381,0.194c-0.066,0.177-0.115,0.359-0.171,0.542c-0.052,0.173,0.027,0.342,0.177,0.378
				c0,0,0.203,0.05,0.453,0.112c0.25,0.06,0.396,0.339,0.349,0.62c-0.048,0.283-0.275,0.494-0.531,0.471l-0.462-0.044
				c-0.151-0.017-0.287,0.118-0.303,0.298c-0.021,0.188-0.005,0.38-0.009,0.569c0.004,0.181,0.129,0.319,0.281,0.31
				c0,0,0.209-0.012,0.467-0.026c0.259-0.015,0.479,0.207,0.516,0.49c0.037,0.285-0.116,0.555-0.366,0.607l-0.455,0.094
				c-0.15,0.031-0.24,0.199-0.204,0.372c0.045,0.188,0.108,0.367,0.165,0.55c0.052,0.17,0.214,0.267,0.359,0.212
				c0,0,0.196-0.075,0.438-0.164c0.242-0.089,0.517,0.056,0.638,0.315c0.122,0.259,0.051,0.564-0.173,0.687l-0.406,0.226
				c-0.135,0.074-0.175,0.262-0.086,0.417l0.316,0.476c0.096,0.151,0.289,0.186,0.41,0.092c0,0,0.167-0.125,0.371-0.283
				c0.203-0.156,0.51-0.096,0.699,0.115c0.193,0.216,0.215,0.526,0.038,0.711l-0.325,0.334c-0.104,0.108-0.096,0.308,0.044,0.423
				l0.438,0.364c0.138,0.118,0.339,0.087,0.423-0.035c0,0,0.12-0.168,0.271-0.38c0.149-0.209,0.458-0.243,0.703-0.096
				c0.246,0.148,0.36,0.439,0.244,0.668l-0.208,0.415c-0.07,0.132-0.002,0.322,0.167,0.386l0.527,0.222
				c0.166,0.069,0.346-0.02,0.392-0.158c0,0,0.064-0.2,0.145-0.442c0.082-0.245,0.256-0.405,0.395-0.365
				c0.081,0.024,0.166,0.049,0.251,0.068c0.083,0.021,0.167,0.037,0.251,0.057c0.139,0.026,0.222,0.252,0.178,0.505l-0.078,0.459
				c-0.026,0.146,0.092,0.308,0.271,0.323l0.569,0.054c0.179,0.023,0.327-0.115,0.329-0.265c0,0,0.004-0.209,0.009-0.466
				s0.241-0.456,0.529-0.474c0.285-0.017,0.543,0.159,0.576,0.411l0.061,0.461c0.02,0.149,0.181,0.27,0.356,0.229l0.561-0.116
				c0.176-0.035,0.276-0.208,0.234-0.353c0,0-0.059-0.198-0.128-0.443c-0.072-0.248,0.094-0.513,0.361-0.613
				c0.271-0.099,0.567-0.007,0.676,0.226l0.194,0.425c0.063,0.138,0.25,0.197,0.406,0.108l0.5-0.271
				c0.152-0.097,0.204-0.282,0.12-0.408c0,0-0.114-0.174-0.255-0.39c-0.14-0.214-0.058-0.514,0.171-0.689
				c0.227-0.173,0.538-0.173,0.71,0.017l0.311,0.351c0.104,0.118,0.291,0.111,0.419-0.017c0.133-0.135,0.274-0.264,0.4-0.408
				c0.114-0.137,0.111-0.328-0.006-0.425c0,0-0.161-0.132-0.357-0.298c-0.198-0.161-0.207-0.473-0.04-0.706
				c0.164-0.233,0.462-0.327,0.684-0.192l0.4,0.24c0.131,0.079,0.308,0.018,0.394-0.142c0.087-0.168,0.188-0.331,0.261-0.51
				c0.068-0.165,0.011-0.345-0.132-0.402c0,0-0.192-0.08-0.428-0.179c-0.236-0.096-0.34-0.391-0.248-0.662
				C121.207,153.52,121.464,153.341,121.716,153.404z"/>
		</g>
		<circle fill="#46B2AC" cx="114.531" cy="151.601" r="3.219"/>
	</g>
	<g>
		<circle fill="#AD5F2A" cx="64.692" cy="171.685" r="3.917"/>
		<circle fill="#FFFFFF" cx="78.236" cy="171.685" r="3.917"/>
		<circle fill="#F2E9E2" cx="91.78" cy="171.685" r="3.916"/>
		<circle fill="#4F2B08" cx="105.323" cy="171.685" r="3.916"/>
		<circle fill="#257A7C" cx="118.867" cy="171.685" r="3.916"/>
	</g>
	<g>
		<path fill="#AD5F2A" d="M107.441,12.482h0.518c-0.001-0.99,0.307-1.875,0.773-2.493c0.471-0.619,1.07-0.956,1.707-0.956
			c0.635,0,1.234,0.339,1.705,0.956c0.469,0.617,0.775,1.503,0.774,2.493c0.003,0.444-0.176,1.424-0.455,2.565
			c-0.415,1.721-1.046,3.865-1.572,5.574c-0.262,0.854-0.499,1.6-0.67,2.132c-0.17,0.533-0.275,0.85-0.275,0.85l0.493,0.163
			l0.49-0.163c0-0.001-0.186-0.565-0.465-1.45c-0.422-1.326-1.053-3.367-1.576-5.276c-0.262-0.953-0.497-1.875-0.665-2.651
			c-0.168-0.771-0.267-1.415-0.265-1.744H107.441h-0.517c0.003,0.651,0.199,1.628,0.482,2.808c0.851,3.517,2.539,8.631,2.539,8.639
			l0.493,1.491l0.49-1.491c0-0.004,0.753-2.282,1.503-4.837c0.377-1.28,0.754-2.627,1.038-3.801
			c0.282-1.179,0.479-2.156,0.483-2.808c-0.001-1.201-0.365-2.297-0.982-3.116C112.356,8.55,111.458,8,110.439,8
			c-1.021,0-1.92,0.55-2.533,1.367c-0.616,0.819-0.98,1.915-0.981,3.116H107.441z"/>
		<path fill="#AD5F2A" d="M110.3,22.416c-0.373,1.636-0.943,3.057-1.699,4.03c-0.764,0.974-1.654,1.501-2.83,1.508
			c-1.136-0.002-2.044-0.602-2.798-1.604c-0.747-0.998-1.277-2.38-1.561-3.753l-1.011,0.208c0.305,1.487,0.869,2.99,1.739,4.163
			c0.864,1.168,2.093,2.023,3.63,2.021c1.523,0.006,2.764-0.754,3.647-1.909c0.895-1.158,1.492-2.706,1.89-4.434L110.3,22.416z"/>
		<path fill="#AD5F2A" d="M101.144,22.416c-0.374,1.636-0.942,3.057-1.699,4.03c-0.764,0.974-1.653,1.501-2.829,1.508v1.035
			c1.521,0.006,2.763-0.754,3.647-1.909c0.893-1.158,1.491-2.706,1.89-4.434L101.144,22.416z"/>
		<path fill="#AD5F2A" d="M114.986,27.954c-1.138-0.002-2.046-0.602-2.8-1.604c-0.746-0.998-1.278-2.38-1.561-3.753l-1.012,0.208
			c0.307,1.487,0.87,2.99,1.742,4.163c0.862,1.168,2.092,2.023,3.63,2.021V27.954z"/>
		<path fill="#AD5F2A" d="M98.265,12.482h0.518c-0.002-0.99,0.307-1.875,0.773-2.493c0.47-0.617,1.07-0.956,1.706-0.956
			s1.237,0.339,1.707,0.956c0.467,0.617,0.774,1.503,0.772,2.493c0.005,0.444-0.175,1.424-0.453,2.565
			c-0.416,1.721-1.047,3.865-1.573,5.574c-0.261,0.854-0.498,1.6-0.67,2.132c-0.17,0.533-0.275,0.85-0.275,0.85l0.492,0.163
			l0.492-0.163c0,0-0.187-0.565-0.467-1.45c-0.421-1.326-1.052-3.367-1.575-5.276c-0.262-0.953-0.498-1.875-0.666-2.651
			c-0.169-0.771-0.266-1.415-0.264-1.744H98.265h-0.518c0.003,0.651,0.199,1.628,0.482,2.808c0.853,3.517,2.539,8.631,2.54,8.639
			l0.492,1.491l0.492-1.491c0-0.004,0.751-2.282,1.503-4.837c0.377-1.28,0.753-2.627,1.038-3.801
			c0.281-1.179,0.479-2.156,0.483-2.808c-0.002-1.201-0.367-2.297-0.983-3.116C103.18,8.55,102.282,8,101.262,8
			c-1.02,0-1.919,0.55-2.533,1.367c-0.616,0.819-0.98,1.915-0.981,3.116H98.265z"/>
		<path fill="#AD5F2A" d="M89.071,12.482h0.518c-0.001-0.99,0.307-1.875,0.773-2.493c0.471-0.619,1.07-0.956,1.706-0.956
			s1.235,0.339,1.707,0.956c0.467,0.617,0.774,1.503,0.772,2.493c0.005,0.444-0.175,1.424-0.453,2.565
			c-0.417,1.721-1.047,3.865-1.573,5.574c-0.263,0.854-0.499,1.6-0.67,2.132c-0.171,0.533-0.275,0.85-0.275,0.85l0.492,0.163
			l0.49-0.163c0-0.001-0.186-0.565-0.466-1.45c-0.42-1.326-1.051-3.367-1.574-5.276c-0.262-0.953-0.497-1.875-0.665-2.651
			c-0.168-0.771-0.267-1.415-0.265-1.744H89.071h-0.517c0.003,0.651,0.198,1.628,0.482,2.808c0.851,3.517,2.538,8.631,2.539,8.639
			l0.492,1.491l0.49-1.491c0.002-0.004,0.753-2.282,1.505-4.837c0.376-1.28,0.754-2.627,1.037-3.801
			c0.283-1.179,0.479-2.156,0.483-2.808c-0.001-1.201-0.366-2.297-0.982-3.116C93.985,8.55,93.088,8,92.067,8
			c-1.02,0-1.918,0.55-2.531,1.367c-0.618,0.819-0.982,1.915-0.982,3.116H89.071z"/>
		<path fill="#AD5F2A" d="M91.929,22.416c-0.373,1.636-0.942,3.057-1.698,4.03c-0.764,0.974-1.654,1.501-2.83,1.508
			c-1.137-0.002-2.046-0.602-2.8-1.604c-0.746-0.998-1.277-2.38-1.559-3.753l-1.013,0.208c0.307,1.487,0.871,2.99,1.742,4.163
			c0.862,1.168,2.092,2.023,3.63,2.021c1.522,0.006,2.762-0.754,3.647-1.909c0.893-1.158,1.491-2.706,1.89-4.434L91.929,22.416z"/>
		<path fill="#AD5F2A" d="M82.773,22.416c-0.375,1.636-0.944,3.057-1.699,4.03c-0.764,0.974-1.654,1.501-2.829,1.508v1.035
			c1.522,0.006,2.762-0.754,3.647-1.909c0.894-1.158,1.491-2.706,1.89-4.434L82.773,22.416z"/>
		<path fill="#AD5F2A" d="M96.615,27.954c-1.139-0.002-2.046-0.602-2.8-1.604c-0.747-0.998-1.278-2.38-1.56-3.753l-1.014,0.208
			c0.308,1.487,0.872,2.99,1.743,4.163c0.862,1.168,2.093,2.023,3.63,2.021V27.954z"/>
		<path fill="#AD5F2A" d="M79.894,12.482h0.517c-0.001-0.99,0.307-1.875,0.774-2.493c0.47-0.617,1.07-0.956,1.706-0.956
			s1.236,0.339,1.708,0.956c0.467,0.617,0.774,1.503,0.773,2.493c0.004,0.444-0.175,1.424-0.454,2.565
			c-0.417,1.721-1.047,3.865-1.573,5.574c-0.263,0.854-0.499,1.6-0.67,2.132c-0.17,0.533-0.275,0.85-0.275,0.85l0.492,0.163
			l0.491-0.163c0,0-0.186-0.565-0.466-1.45c-0.419-1.326-1.051-3.367-1.575-5.276c-0.263-0.953-0.498-1.875-0.666-2.651
			c-0.168-0.771-0.267-1.415-0.264-1.744H79.894h-0.518c0.003,0.651,0.199,1.628,0.482,2.808c0.853,3.517,2.54,8.631,2.541,8.639
			l0.492,1.491l0.491-1.491c0.001-0.004,0.753-2.282,1.505-4.837c0.376-1.28,0.753-2.627,1.037-3.801
			c0.283-1.179,0.479-2.156,0.484-2.808c-0.001-1.201-0.366-2.297-0.983-3.116C84.809,8.55,83.912,8,82.891,8
			c-1.02,0-1.919,0.55-2.532,1.367c-0.618,0.819-0.981,1.915-0.982,3.116H79.894z"/>
		<path fill="#AD5F2A" d="M70.699,12.482h0.518c0-0.99,0.307-1.875,0.773-2.493c0.472-0.619,1.071-0.956,1.707-0.956
			s1.236,0.339,1.708,0.956c0.467,0.617,0.774,1.503,0.773,2.493c0.004,0.444-0.175,1.424-0.454,2.565
			c-0.417,1.721-1.047,3.865-1.573,5.574c-0.263,0.854-0.5,1.6-0.67,2.132c-0.17,0.533-0.275,0.85-0.275,0.85l0.492,0.163
			l0.491-0.163c0-0.001-0.186-0.565-0.466-1.45c-0.42-1.326-1.051-3.367-1.574-5.276c-0.262-0.953-0.498-1.875-0.665-2.651
			c-0.169-0.771-0.267-1.415-0.266-1.744H70.699h-0.517c0.004,0.651,0.199,1.628,0.483,2.808c0.852,3.517,2.538,8.631,2.54,8.639
			l0.492,1.491l0.491-1.491c0.001-0.004,0.752-2.282,1.505-4.837c0.376-1.28,0.753-2.627,1.037-3.801
			c0.283-1.179,0.479-2.156,0.483-2.808c-0.001-1.201-0.365-2.297-0.983-3.116C75.615,8.55,74.716,8,73.696,8
			s-1.918,0.55-2.532,1.367c-0.618,0.819-0.982,1.915-0.983,3.116H70.699z"/>
		<path fill="#AD5F2A" d="M73.558,22.416c-0.375,1.636-0.944,3.057-1.699,4.03c-0.763,0.974-1.654,1.501-2.829,1.508
			c-1.137-0.002-2.046-0.602-2.8-1.604c-0.746-0.998-1.278-2.38-1.56-3.753l-1.013,0.208c0.307,1.487,0.872,2.99,1.741,4.163
			c0.863,1.168,2.093,2.023,3.631,2.021c1.521,0.006,2.762-0.754,3.647-1.909c0.894-1.158,1.491-2.706,1.89-4.434L73.558,22.416z"/>
		<path fill="#AD5F2A" d="M64.402,22.416c-0.375,1.636-0.944,3.057-1.699,4.03c-0.765,0.974-1.654,1.501-2.829,1.508v1.035
			c1.52,0.006,2.762-0.754,3.646-1.909c0.894-1.158,1.492-2.706,1.89-4.434L64.402,22.416z"/>
		<path fill="#AD5F2A" d="M78.245,27.954c-1.138-0.002-2.047-0.602-2.801-1.604c-0.746-0.998-1.277-2.38-1.559-3.753l-1.013,0.208
			c0.307,1.487,0.872,2.99,1.741,4.163c0.863,1.168,2.094,2.023,3.632,2.021V27.954z"/>
		<path fill="#AD5F2A" d="M61.522,12.482h0.518c-0.001-0.99,0.306-1.875,0.772-2.493c0.471-0.617,1.072-0.956,1.707-0.956
			c0.637,0,1.237,0.339,1.708,0.956c0.467,0.617,0.774,1.503,0.773,2.493c0.003,0.444-0.175,1.424-0.454,2.565
			c-0.417,1.721-1.047,3.865-1.573,5.574c-0.263,0.854-0.5,1.6-0.67,2.132c-0.17,0.533-0.275,0.85-0.275,0.85l0.491,0.163
			l0.491-0.163c0,0-0.187-0.565-0.466-1.45c-0.42-1.326-1.051-3.367-1.576-5.276c-0.262-0.953-0.497-1.875-0.665-2.651
			c-0.168-0.771-0.267-1.415-0.264-1.744H61.522h-0.517c0.003,0.651,0.199,1.628,0.483,2.808c0.852,3.517,2.539,8.631,2.541,8.639
			l0.491,1.491l0.491-1.491c0.001-0.004,0.752-2.282,1.505-4.837c0.375-1.28,0.753-2.627,1.037-3.801
			c0.282-1.179,0.479-2.156,0.483-2.808c-0.001-1.201-0.365-2.297-0.983-3.116C66.438,8.55,65.539,8,64.52,8
			c-1.019,0-1.919,0.55-2.532,1.367c-0.619,0.819-0.982,1.915-0.982,3.116H61.522z"/>
	</g>
	<circle fill="#F0812B" cx="117.053" cy="28.444" r="3.31"/>
	<circle fill="#F0812B" cx="59.427" cy="28.444" r="3.309"/>
	<circle fill="#257A7C" cx="152.893" cy="186.099" r="7.891"/>
	<g>
		<polygon fill="#4F2B08" points="22.881,123.692 26.885,130.796 30.216,129.093 27.026,121.586 		"/>
		<path fill="#F2E9E2" d="M19.042,126.187l4.83,6.571c1.021-0.677,1.918-1.516,3.092-2l-3.985-7.116
			C21.56,124.264,20.338,125.306,19.042,126.187z"/>
		<path fill="#4F2B08" d="M15.417,129.233l5.672,5.859c0.808-0.896,1.732-1.678,2.782-2.334l-4.83-6.571
			C17.719,127.045,16.514,128.061,15.417,129.233z"/>
		<path fill="#F2E9E2" d="M12.293,132.691l6.44,5c0.628-1.025,1.567-1.809,2.417-2.658l-5.652-5.879
			C14.368,130.275,13.175,131.336,12.293,132.691z"/>
		<path fill="#4F2B08" d="M9.632,136.677l7.114,3.987c0.449-1.122,1.331-1.979,1.988-2.974l-6.44-5
			C11.386,134.006,10.281,135.201,9.632,136.677z"/>
		<path fill="#F2E9E2" d="M7.637,140.913l7.616,2.914c0.317-1.169,1.049-2.146,1.532-3.236l-7.1-4.011
			C9.002,138.023,8.092,139.382,7.637,140.913z"/>
		<path fill="#4F2B08" d="M6.249,145.477l7.954,1.799c0.196-1.201,0.724-2.293,1.05-3.449l-7.616-2.914
			C7.172,142.432,6.525,143.917,6.249,145.477z"/>
		<path fill="#F2E9E2" d="M5.518,150.047l8.12,0.739c0.104-1.215,0.406-2.395,0.58-3.595l-7.948-1.826
			C6.014,146.922,5.652,148.481,5.518,150.047z"/>
		<path fill="#4F2B08" d="M5.375,154.747l8.15-0.276c-0.004-1.231,0.089-2.454,0.112-3.684l-8.12-0.739
			C5.462,151.613,5.36,153.186,5.375,154.747z"/>
		<polygon fill="#F2E9E2" points="5.785,159.287 13.851,158.09 13.517,154.381 5.365,154.637 		"/>
		<polygon fill="#4F2B08" points="6.73,163.823 14.621,161.764 13.851,158.09 5.785,159.287 		"/>
		<path fill="#F2E9E2" d="M8.102,168.107l7.647-2.831c-0.369-1.203-0.863-2.378-1.146-3.598l-7.896,2.036
			C7.062,165.216,7.637,166.642,8.102,168.107z"/>
		<path fill="#4F2B08" d="M9.919,172.325l7.332-3.568c-0.482-1.168-1.165-2.263-1.502-3.48l-7.647,2.831
			C8.536,169.589,9.318,170.917,9.919,172.325z"/>
		<path fill="#F2E9E2" d="M12.07,176.244l6.967-4.239c-0.652-1.088-1.35-2.151-1.824-3.331l-7.34,3.553
			C10.462,173.645,11.285,174.934,12.07,176.244z"/>
		<path fill="#4F2B08" d="M14.632,180.036l6.535-4.877c-0.809-0.985-1.517-2.034-2.129-3.154l-6.967,4.239
			C12.817,177.582,13.669,178.844,14.632,180.036z"/>
		<path fill="#F2E9E2" d="M17.459,183.494l6.057-5.459c-0.924-0.876-1.625-1.947-2.404-2.949l-6.545,4.863
			C15.5,181.157,16.361,182.425,17.459,183.494z"/>
		<path fill="#4F2B08" d="M20.672,186.76l5.508-6.014c-0.979-0.802-1.766-1.818-2.663-2.712l-6.057,5.459
			C18.533,184.58,19.498,185.781,20.672,186.76z"/>
		<polygon fill="#F2E9E2" points="24.095,189.657 29.006,183.149 26.111,180.689 20.589,186.69 		"/>
	</g>
	<path fill="#257A7C" d="M25.015,135.258c0,2.544,2.062,4.605,4.607,4.605l0,0c2.543,0,4.606-2.062,4.606-4.605v-18.792
		c0-2.546-2.063-4.606-4.606-4.606l0,0c-2.545,0-4.607,2.06-4.607,4.606V135.258z"/>
	<circle fill="#257A7C" cx="25.387" cy="186.099" r="7.892"/>
	<g>
		<path fill="#257A7C" d="M72.741,61.744c-6.741-1.659-25.496-5.615-29.97,2.257c-3.104,5.46,2.024,20.771,7.872,23.05
			c8.894,3.463,20.657,2.083,26.64-5.779C83.8,72.709,84.215,64.57,72.741,61.744z"/>
		<path fill="#257A7C" d="M102.044,62.158c-11.087,2.731-10.687,10.597-4.391,18.873c5.782,7.596,17.15,8.932,25.747,5.585
			c5.653-2.204,10.607-17,7.607-22.276C126.683,56.731,108.559,60.555,102.044,62.158z"/>
		<g>
			<circle fill="#F2E9E2" cx="65.47" cy="73.116" r="8.576"/>
			<circle fill="#FA422A" cx="65.47" cy="73.116" r="6.174"/>
			<circle fill="#4F2B08" cx="65.47" cy="73.116" r="2.486"/>
		</g>
		<g>
			<circle fill="#F2E9E2" cx="109.99" cy="73.116" r="8.576"/>
			<circle fill="#FA422A" cx="109.99" cy="73.116" r="6.173"/>
			<circle fill="#4F2B08" cx="109.989" cy="73.116" r="2.486"/>
		</g>
		<circle fill="#FFFFFF" cx="113.434" cy="71.921" r="1.494"/>
		<circle fill="#FFFFFF" cx="66.605" cy="71.921" r="1.493"/>
		<g>
			<path fill="#4F2B08" d="M96.478,60.721c-3.318,1.143-7.426,1.333-9.065,1.356c-1.635-0.024-5.769-0.214-9.083-1.356
				c-6.323-2.182-16.486-3.555-24.242-3.363c-7.756,0.195-15.891,1.583-18.348,2.487l1.485,6.593c0,0,2.169-0.17,2.705,1.329
				c0.663,1.844,4.261,12.819,6.206,16.872c1.597,3.319,5.919,6.163,15.968,6.204c14.297,0.06,19.25-9.718,21.525-16.032
				c0.24-0.664,0.596-1.927,0.922-3.152c0.469-1.753,1.495-3.482,1.958-3.728c0.275-0.146,0.592-0.262,0.903-0.262
				c0.312,0,0.632,0.116,0.907,0.262c0.463,0.245,1.466,1.975,1.936,3.728c0.326,1.225,0.684,2.488,0.923,3.152
				c2.273,6.314,7.225,16.092,21.526,16.032c10.05-0.042,14.369-2.885,15.966-6.204c1.947-4.053,5.542-15.028,6.208-16.872
				c0.537-1.499,2.703-1.329,2.703-1.329l1.487-6.593c-2.454-0.904-10.594-2.292-18.351-2.487
				C112.962,57.166,102.802,58.539,96.478,60.721z M76.501,80.841c-5.48,7.2-16.255,8.466-24.399,5.293
				c-5.358-2.086-10.054-16.111-7.212-21.112c4.098-7.211,21.277-3.588,27.451-2.068C82.85,65.543,82.47,72.999,76.501,80.841z
				 M129.916,65.022c2.843,5.001-1.852,19.025-7.211,21.112c-8.147,3.173-18.921,1.907-24.401-5.293
				c-5.969-7.842-6.348-15.297,4.16-17.887C108.639,61.434,125.816,57.811,129.916,65.022z"/>
		</g>
	</g>
</g>
</svg>
